<?xml version="1.0" standalone="no"?><!DOCTYPE svg PUBLIC "-//W3C//DTD SVG 1.1//EN" "http://www.w3.org/Graphics/SVG/1.1/DTD/svg11.dtd"><svg t="1725148054944" class="icon" viewBox="0 0 1024 1024" version="1.1" xmlns="http://www.w3.org/2000/svg" p-id="12497" xmlns:xlink="http://www.w3.org/1999/xlink" width="200" height="200"><path d="M524 127.936c-41.504-0.736-84.736 5.76-129.76 19.552-60.16 18.56-111.04 53.44-153.28 101.12-5.76 6.72-9.92 13.76-4.48 21.76 4.48 6.08 1.92 9.344-1.28 14.144-29.76 41.6-49.92 87.296-59.2 137.536-0.96 6.4-4.16 9.024-9.6 11.584-21.12 10.56-33.6 27.84-37.12 51.2L128 524.48v41.536c0 46.08 31.36 75.552 77.76 73.632 11.52-0.64 18.24-6.72 18.24-17.28v-140.096c0-0.8 1.504-40.48 5.12-58.944 7.488-37.632 20.8-68.992 38.24-94.784C318.144 246.72 408.576 192 512 192a288 288 0 0 1 288 288v137.28c0 10.56 2.56 18.88 13.44 21.44 36.16 7.36 73.92-17.92 80-55.04 4.16-25.6 1.28-62.08 1.28-88-0.32-28.16-12.8-49.92-39.04-63.04-4.16-1.92-7.36-4.16-8.64-9.6a334.72 334.72 0 0 0-60.8-140.48c-1.6-2.24-5.12-4.8-3.2-7.36 12.8-17.28-0.32-27.2-10.56-36.8-74.336-71.968-157.184-108.8-248.48-110.464z m-192.512 384.128c-20.16-1.28-36.416 11.84-40.928 35.008-6.848 33.28 0 65.216 19.424 93.92 13.44 19.52 34.112 28.736 58.144 30.4 15.456 0.768 70.4 2.912 82.688-1.152 16-5.696 26.88-15.168 30.304-30.88 3.136-15.68-16.32-38.144-43.52-61.984-28-24.384-64.64-49.6-84.96-59.072a53.344 53.344 0 0 0-21.12-6.24z m371.936 64.192c-29.952-2.752-72.512 16.96-91.744 24.96-103.456 41.536-63.552 81.504-31.296 90.4l72.992 11.456c51.552 4.096 83.776-42.56 82.56-90.208-1.12-25.216-14.528-34.944-32.512-36.608z m74.08 95.808a7.52 7.52 0 0 0-5.184 2.688c-0.64 0.96-0.96 1.984-1.28 2.624-11.776 39.392-65.216 173.344-250.656 187.136-218.016 16.064 116.8 66.944 211.84-9.888 32.96-26.944 69.28-53.824 67.712-131.296-0.608-15.776-7.104-41.056-16.736-49.6a8.192 8.192 0 0 0-5.696-1.664z" p-id="12498"></path></svg>